<svg width="32" height="32" viewBox="0 0 32 32" fill="none" xmlns="http://www.w3.org/2000/svg">
<path d="M15.3666 3.06006C15.425 2.94201 15.5153 2.84264 15.6272 2.77316C15.7391 2.70369 15.8682 2.66687 15.9999 2.66687C16.1316 2.66687 16.2607 2.70369 16.3726 2.77316C16.4846 2.84264 16.5748 2.94201 16.6333 3.06006L19.7132 9.29873C19.9162 9.70935 20.2157 10.0646 20.5861 10.334C20.9565 10.6034 21.3868 10.7789 21.8399 10.8454L28.7279 11.8534C28.8584 11.8723 28.981 11.9274 29.0819 12.0123C29.1828 12.0973 29.2578 12.2088 29.2986 12.3342C29.3394 12.4596 29.3443 12.5939 29.3127 12.722C29.2811 12.85 29.2143 12.9667 29.1199 13.0587L24.1386 17.9094C23.8101 18.2295 23.5643 18.6247 23.4224 19.0609C23.2804 19.4971 23.2467 19.9612 23.3239 20.4134L24.4999 27.2667C24.523 27.3972 24.5089 27.5315 24.4592 27.6543C24.4096 27.7771 24.3265 27.8835 24.2193 27.9614C24.1121 28.0392 23.9852 28.0854 23.8531 28.0946C23.7209 28.1038 23.5888 28.0757 23.4719 28.0134L17.3146 24.7761C16.9089 24.563 16.4575 24.4517 15.9993 24.4517C15.541 24.4517 15.0896 24.563 14.6839 24.7761L8.52792 28.0134C8.41103 28.0753 8.27911 28.1031 8.14719 28.0937C8.01526 28.0844 7.88861 28.0381 7.78164 27.9604C7.67468 27.8826 7.59169 27.7763 7.54213 27.6537C7.49256 27.5311 7.47839 27.397 7.50125 27.2667L8.67592 20.4147C8.75351 19.9624 8.7199 19.4979 8.57797 19.0615C8.43604 18.625 8.19006 18.2296 7.86125 17.9094L2.87992 13.0601C2.78471 12.9681 2.71724 12.8513 2.6852 12.7228C2.65316 12.5944 2.65783 12.4596 2.69869 12.3336C2.73954 12.2077 2.81494 12.0959 2.91629 12.0107C3.01763 11.9256 3.14086 11.8706 3.27192 11.8521L10.1586 10.8454C10.6123 10.7794 11.0431 10.6041 11.414 10.3347C11.785 10.0653 12.0849 9.70976 12.2879 9.29873L15.3666 3.06006Z" stroke="white" stroke-width="2.66667" stroke-linecap="round" stroke-linejoin="round"/>
</svg>
