<svg width="16" height="17" viewBox="0 0 16 17" fill="none" xmlns="http://www.w3.org/2000/svg">
<path d="M1.99475 11.2947C2.09277 11.542 2.1146 11.8129 2.05741 12.0727L1.34741 14.266C1.32454 14.3773 1.33045 14.4925 1.3646 14.6008C1.39874 14.7091 1.45999 14.8069 1.54252 14.8849C1.62506 14.9629 1.72615 15.0185 1.83621 15.0465C1.94627 15.0744 2.06165 15.0738 2.17141 15.0447L4.44675 14.3794C4.69189 14.3308 4.94576 14.352 5.17941 14.4407C6.603 15.1055 8.21566 15.2462 9.73285 14.8379C11.25 14.4295 12.5743 13.4985 13.4719 12.209C14.3695 10.9194 14.7828 9.35432 14.6389 7.78974C14.4951 6.22517 13.8032 4.76169 12.6855 3.65751C11.5677 2.55333 10.0959 1.8794 8.52967 1.75464C6.96345 1.62988 5.4035 2.0623 4.12504 2.9756C2.84658 3.88891 1.93177 5.22441 1.54201 6.74647C1.15225 8.26853 1.31259 9.87935 1.99475 11.2947Z" stroke="white" stroke-width="1.33333" stroke-linecap="round" stroke-linejoin="round"/>
</svg>
