<svg width="16" height="17" viewBox="0 0 16 17" fill="none" xmlns="http://www.w3.org/2000/svg">
<path d="M10.6667 14.8V13.4667C10.6667 12.7594 10.3857 12.0811 9.88562 11.581C9.38552 11.0809 8.70724 10.8 8 10.8H4C3.29276 10.8 2.61448 11.0809 2.11438 11.581C1.61429 12.0811 1.33333 12.7594 1.33333 13.4667V14.8" stroke="#717182" stroke-width="1.33333" stroke-linecap="round" stroke-linejoin="round"/>
<path d="M10.6667 2.88531C11.2385 3.03356 11.7449 3.36749 12.1065 3.83469C12.468 4.30189 12.6641 4.87591 12.6641 5.46665C12.6641 6.05739 12.468 6.63141 12.1065 7.09861C11.7449 7.56581 11.2385 7.89973 10.6667 8.04798" stroke="#717182" stroke-width="1.33333" stroke-linecap="round" stroke-linejoin="round"/>
<path d="M14.6667 14.8V13.4667C14.6662 12.8758 14.4696 12.3018 14.1076 11.8349C13.7456 11.3679 13.2388 11.0344 12.6667 10.8867" stroke="#717182" stroke-width="1.33333" stroke-linecap="round" stroke-linejoin="round"/>
<path d="M6 8.13332C7.47276 8.13332 8.66667 6.93941 8.66667 5.46665C8.66667 3.9939 7.47276 2.79999 6 2.79999C4.52724 2.79999 3.33333 3.9939 3.33333 5.46665C3.33333 6.93941 4.52724 8.13332 6 8.13332Z" stroke="#717182" stroke-width="1.33333" stroke-linecap="round" stroke-linejoin="round"/>
</svg>
