<svg width="17" height="17" viewBox="0 0 17 17" fill="none" xmlns="http://www.w3.org/2000/svg">
<g clip-path="url(#clip0_30_844)">
<path d="M8.54584 2.33002C8.57506 2.27099 8.62019 2.22131 8.67614 2.18657C8.7321 2.15183 8.79665 2.13342 8.86251 2.13342C8.92837 2.13342 8.99292 2.15183 9.04887 2.18657C9.10483 2.22131 9.14996 2.27099 9.17917 2.33002L10.7192 5.44935C10.8206 5.65466 10.9704 5.83229 11.1556 5.96699C11.3408 6.10168 11.5559 6.18943 11.7825 6.22269L15.2265 6.72669C15.2918 6.73614 15.3531 6.76367 15.4035 6.80615C15.4539 6.84864 15.4915 6.90438 15.5119 6.96709C15.5322 7.0298 15.5347 7.09696 15.5189 7.16098C15.5031 7.225 15.4697 7.28332 15.4225 7.32935L12.9318 9.75469C12.7676 9.91475 12.6447 10.1123 12.5737 10.3304C12.5028 10.5485 12.4859 10.7806 12.5245 11.0067L13.1125 14.4334C13.124 14.4986 13.117 14.5657 13.0922 14.6271C13.0674 14.6886 13.0258 14.7418 12.9722 14.7807C12.9186 14.8196 12.8552 14.8427 12.7891 14.8473C12.723 14.8519 12.657 14.8378 12.5985 14.8067L9.51984 13.188C9.31699 13.0815 9.09129 13.0259 8.86217 13.0259C8.63305 13.0259 8.40736 13.0815 8.20451 13.188L5.12651 14.8067C5.06806 14.8376 5.00211 14.8515 4.93614 14.8469C4.87018 14.8422 4.80685 14.8191 4.75337 14.7802C4.69989 14.7413 4.6584 14.6881 4.63361 14.6268C4.60883 14.5655 4.60175 14.4985 4.61317 14.4334L5.20051 11.0074C5.2393 10.7812 5.2225 10.549 5.15153 10.3307C5.08057 10.1125 4.95758 9.91479 4.79317 9.75469L2.30251 7.33002C2.2549 7.28404 2.22117 7.22562 2.20515 7.1614C2.18913 7.09719 2.19147 7.02976 2.21189 6.96681C2.23232 6.90386 2.27002 6.84791 2.32069 6.80534C2.37137 6.76277 2.43298 6.73528 2.49851 6.72602L5.94184 6.22269C6.16868 6.18968 6.3841 6.10206 6.56956 5.96734C6.75503 5.83263 6.90498 5.65487 7.00651 5.44935L8.54584 2.33002Z" fill="#FDC700" stroke="#FDC700" stroke-width="1.33333" stroke-linecap="round" stroke-linejoin="round"/>
</g>
<defs>
<clipPath id="clip0_30_844">
<rect width="16" height="16" fill="white" transform="translate(0.862503 0.799988)"/>
</clipPath>
</defs>
</svg>
